<?xml version="1.0" standalone="no"?>
<!DOCTYPE svg PUBLIC "-//W3C//DTD SVG 20010904//EN"
 "http://www.w3.org/TR/2001/REC-SVG-20010904/DTD/svg10.dtd">
<svg version="1.0" xmlns="http://www.w3.org/2000/svg"
 width="610.000000pt" height="600.000000pt" viewBox="0 0 610.000000 600.000000"
 preserveAspectRatio="xMidYMid meet">

<g transform="translate(0.000000,600.000000) scale(0.100000,-0.100000)"
fill="#000000" stroke="none">
<path d="M2880 5993 c-575 -39 -1077 -205 -1530 -506 -461 -306 -811 -706
-1051 -1202 -96 -199 -155 -362 -208 -575 -118 -479 -118 -937 0 -1418 54
-220 113 -382 219 -597 232 -471 593 -882 1032 -1174 133 -88 158 -100 183
-90 32 12 36 10 29 -15 -5 -22 3 -28 103 -79 59 -30 149 -72 198 -92 89 -38
311 -115 328 -115 5 0 6 15 3 32 -4 22 -3 27 2 14 6 -13 11 -16 15 -8 7 11
-34 117 -78 202 -13 25 -24 50 -25 55 -3 15 -10 20 -10 7 0 -7 -4 -12 -8 -12
-5 0 -7 13 -4 29 5 34 -47 182 -62 174 -5 -4 -7 3 -4 15 4 12 2 25 -3 28 -5 3
-9 18 -9 33 0 15 -4 31 -8 36 -9 10 -55 148 -58 175 -1 8 -9 41 -18 73 -9 32
-16 67 -16 77 0 10 -15 54 -34 97 -50 114 -72 193 -55 203 9 6 10 12 2 22 -8
10 -8 18 3 32 9 12 14 45 14 85 1 36 7 93 15 126 15 65 59 192 69 202 3 4 6
14 6 24 0 30 40 128 64 156 l23 26 5 -100 c6 -103 12 -121 65 -186 13 -16 23
-25 23 -20 0 5 13 22 29 39 26 26 48 94 30 94 -11 0 -19 44 -9 54 6 6 13 -1
19 -17 8 -20 18 -27 36 -27 25 0 35 15 13 22 -16 6 -18 48 -2 48 7 0 20 10 29
23 15 20 16 20 11 2 -5 -16 -1 -21 14 -21 13 0 20 7 20 18 0 10 5 18 10 18 6
0 10 -10 10 -21 0 -18 2 -19 15 -9 12 10 15 9 15 -4 0 -9 8 -20 18 -23 22 -8
53 -41 71 -76 8 -15 20 -27 28 -27 16 0 17 -12 1 -28 -9 -9 -5 -12 18 -12 23
0 26 -2 14 -11 -11 -8 -12 -12 -2 -16 6 -2 12 -11 12 -18 0 -7 16 -30 35 -51
20 -23 32 -46 29 -55 -6 -22 6 -50 18 -43 6 4 18 -3 28 -16 l17 -23 6 32 c4
18 11 30 17 26 6 -4 10 4 10 19 0 13 -6 26 -12 29 -7 2 -10 7 -7 11 4 4 18 1
32 -5 14 -6 34 -8 44 -5 17 7 17 8 -2 19 -30 16 -42 31 -37 45 6 19 22 14 22
-7 0 -24 13 -33 34 -25 24 9 21 54 -4 54 -25 0 -38 29 -19 41 11 7 9 10 -8 15
-30 8 -29 32 2 44 14 5 25 14 25 19 0 6 6 8 14 5 7 -3 16 2 19 10 5 13 11 11
32 -10 20 -20 29 -24 38 -15 6 6 21 11 34 11 13 0 23 6 23 13 0 9 2 9 8 0 4
-6 14 -11 22 -11 44 3 81 -3 75 -12 -9 -15 42 -12 68 4 33 21 87 19 87 -3 0
-9 6 -23 13 -30 10 -10 9 -15 -5 -25 -24 -17 -23 -25 2 -19 25 7 26 -12 2 -29
-11 -7 -25 -30 -31 -51 -7 -21 -20 -41 -28 -44 -8 -3 -12 -11 -9 -18 3 -8 1
-26 -4 -42 -5 -15 -9 -20 -9 -10 -1 19 -9 21 -31 7 -13 -9 -13 -11 -1 -19 12
-8 13 -12 1 -26 -22 -26 2 -39 30 -15 27 24 36 25 47 6 4 -7 19 -13 33 -12 22
1 25 -2 22 -31 -3 -31 -1 -33 27 -33 23 0 30 -5 33 -23 2 -15 11 -23 30 -25
22 -3 28 2 39 35 7 21 13 43 13 49 1 15 56 64 84 75 27 10 40 38 22 49 -8 5
-9 10 -2 14 6 4 9 13 6 21 -8 21 20 45 53 45 36 0 60 14 43 25 -6 4 -17 2 -23
-4 -6 -6 -17 -11 -24 -11 -16 0 -7 49 11 65 7 6 21 25 32 43 16 29 17 34 4 42
-12 8 -9 10 13 10 25 0 27 -3 27 -39 0 -22 5 -52 11 -68 8 -22 7 -30 -5 -39
-9 -6 -16 -14 -16 -18 0 -4 -7 -18 -17 -32 -12 -19 -18 -22 -24 -12 -4 7 -11
9 -16 5 -4 -5 -1 -12 7 -17 12 -7 10 -11 -10 -19 -15 -6 -19 -10 -9 -10 9 -1
22 6 29 14 12 14 15 14 30 0 9 -8 22 -15 30 -15 10 0 10 -3 0 -15 -10 -12 -10
-15 1 -15 21 0 106 87 125 126 12 25 15 48 10 82 -15 109 -18 172 -9 172 15 0
59 -53 71 -85 6 -16 13 -55 16 -85 6 -51 23 -156 46 -275 10 -52 24 -212 25
-277 0 -41 8 -48 24 -20 22 39 30 -10 37 -231 4 -125 9 -225 12 -222 7 6 32
-15 32 -27 0 -5 -9 -6 -20 -3 -23 7 -26 1 -34 -72 -3 -31 -1 -53 4 -53 6 0 10
12 10 28 0 15 5 34 10 42 6 10 8 2 4 -25 -11 -68 -22 -112 -23 -87 -1 33 -21
27 -21 -7 0 -15 -11 -84 -25 -151 -14 -67 -24 -128 -21 -134 2 -6 5 -1 5 12 1
12 7 22 14 22 9 0 14 -16 14 -50 1 -27 -3 -50 -8 -50 -5 0 -9 -9 -9 -20 0 -11
-4 -20 -10 -20 -5 0 -10 -11 -10 -24 0 -13 -7 -29 -15 -36 -17 -14 -21 0 -6
28 4 9 11 42 14 72 l6 55 -18 -70 c-10 -38 -22 -78 -26 -87 -4 -10 -4 -18 -1
-18 9 0 164 44 241 69 103 32 207 86 130 67 -18 -5 -25 -2 -25 9 0 8 5 15 11
15 5 0 7 5 4 11 -4 5 1 19 11 30 16 18 16 19 -6 19 -18 0 -21 4 -16 23 20 74
20 74 4 53 -26 -33 -49 3 -25 41 4 6 3 13 -2 15 -5 1 -12 18 -16 36 -6 29 -4
34 15 39 l23 6 -24 18 c-21 16 -22 21 -11 38 14 25 16 61 2 61 -5 0 -10 -10
-10 -22 0 -28 -10 -17 -14 14 -1 13 -6 29 -10 36 -4 7 -2 12 4 12 6 0 8 10 4
26 -5 21 -4 25 7 20 8 -3 22 -9 32 -12 9 -4 17 -15 17 -25 0 -11 5 -19 10 -19
6 0 10 8 8 18 -2 9 3 16 10 15 6 -2 12 4 12 12 0 8 -7 15 -15 15 -8 0 -15 5
-15 10 0 6 -15 8 -36 6 -31 -4 -35 -2 -31 14 3 12 0 17 -8 14 -7 -3 -16 0 -21
7 -4 7 -2 15 4 17 7 2 10 8 6 13 -3 5 -2 14 2 20 10 16 12 76 4 90 -4 6 -13 8
-19 5 -6 -4 -11 -1 -11 6 0 8 13 19 29 25 26 9 30 8 34 -9 4 -14 11 -18 24
-14 10 3 25 1 33 -4 12 -8 11 -10 -6 -10 -27 0 -36 -10 -23 -26 7 -9 7 -19 0
-33 -14 -25 -14 -51 -1 -51 6 0 10 9 10 19 0 11 5 23 11 27 6 3 8 15 6 26 -4
14 -2 18 9 14 8 -3 14 -1 14 4 0 6 5 10 10 10 6 0 10 -16 10 -35 0 -37 13 -46
28 -19 11 20 34 10 25 -11 -6 -17 22 -21 32 -5 3 6 16 10 29 10 16 0 26 -9 36
-35 7 -19 17 -32 22 -29 5 4 7 13 4 21 -4 9 -1 13 6 11 7 -3 14 -17 16 -31 2
-15 10 -27 18 -27 17 0 19 27 2 33 -17 6 -9 13 22 21 19 6 21 5 10 -3 -13 -10
-13 -11 0 -11 8 0 28 -13 43 -30 31 -32 46 -37 65 -18 9 9 12 7 12 -9 0 -15 7
-23 23 -26 13 -2 2 -7 -30 -12 -52 -7 -64 -17 -42 -31 6 -3 16 -1 22 5 6 6 24
11 40 11 22 0 28 -4 23 -15 -4 -10 1 -15 14 -15 11 0 20 6 20 14 0 17 32 15
38 -2 2 -7 -1 -12 -6 -12 -15 0 -42 -58 -36 -75 9 -23 36 -5 30 20 -7 26 0 36
20 28 8 -3 14 -17 14 -32 0 -15 9 -34 20 -44 23 -20 45 -23 34 -5 -4 7 -8 24
-9 38 -3 70 -6 78 -25 83 -11 3 -20 12 -20 21 0 13 6 15 28 10 15 -4 32 -10
37 -14 18 -13 111 -29 134 -23 14 4 26 1 31 -8 7 -11 15 -9 37 11 15 13 39 34
53 45 98 82 388 387 463 486 325 435 510 891 583 1439 23 170 23 528 0 703
-68 529 -262 1007 -578 1430 -417 558 -1042 965 -1738 1131 -274 66 -621 97
-880 79z m19 -1053 c23 -11 71 -22 105 -24 122 -8 201 -19 215 -30 12 -9 14
-8 9 4 -5 13 13 15 126 14 193 -2 286 -22 286 -62 0 -5 11 -13 25 -16 14 -4
23 -10 21 -15 -3 -5 1 -14 9 -21 8 -7 15 -19 15 -26 0 -8 5 -14 10 -14 6 0 10
-6 10 -12 0 -21 46 -109 53 -102 3 4 14 -7 24 -25 10 -17 21 -31 26 -31 10 0
-3 -53 -15 -61 -5 -3 2 -19 16 -34 30 -32 31 -35 12 -60 -14 -20 -11 -49 5
-39 13 8 11 -30 -3 -44 -8 -8 -8 -12 -1 -12 6 0 13 -16 15 -35 2 -19 0 -35 -4
-35 -15 0 -8 -29 10 -40 16 -11 16 -11 0 -6 -13 4 -18 0 -18 -14 0 -11 -5 -20
-11 -20 -6 0 -9 -10 -7 -22 2 -13 8 -22 14 -21 5 1 10 -7 10 -18 0 -10 -3 -19
-7 -19 -4 0 -14 -2 -21 -5 -8 -3 -23 3 -33 13 -69 63 -88 71 -155 67 -36 -1
-81 -10 -100 -18 -19 -8 -66 -18 -104 -22 -38 -4 -87 -13 -109 -21 -47 -17
-50 -17 -42 -4 9 15 -1 12 -35 -8 -16 -10 -27 -22 -23 -25 3 -4 1 -7 -5 -7 -6
0 -16 -17 -23 -37 -6 -21 -15 -43 -20 -49 -5 -6 -6 -14 -3 -17 4 -4 -5 -22
-19 -40 -34 -44 -42 -93 -27 -160 11 -48 19 -60 60 -91 52 -40 76 -47 65 -18
-4 9 -10 25 -12 35 -3 9 -11 17 -18 17 -12 0 -30 29 -22 36 7 7 77 -18 92 -32
11 -11 15 -12 15 -3 0 10 3 10 11 2 7 -7 21 -8 39 -3 18 5 32 4 39 -3 7 -7 11
-7 11 -1 0 6 14 11 30 11 17 0 30 -5 30 -10 0 -5 12 -7 27 -4 15 3 37 -1 49
-9 17 -12 34 -13 82 -5 35 6 75 6 98 1 30 -7 41 -6 47 6 4 7 21 21 37 29 17 9
30 24 30 34 0 13 9 20 33 24 45 6 54 1 62 -41 10 -55 5 -215 -8 -230 -6 -8
-11 -28 -12 -45 0 -18 -3 -36 -6 -42 -4 -5 -7 -25 -7 -44 0 -20 -9 -41 -21
-53 -12 -10 -21 -26 -21 -36 0 -9 -7 -26 -15 -36 -8 -11 -12 -28 -9 -38 4 -14
-8 -33 -45 -69 -28 -27 -54 -62 -57 -77 -6 -28 -15 -56 -35 -107 -7 -16 -13
-43 -15 -59 -1 -16 -8 -34 -16 -40 -7 -6 -22 -47 -33 -91 -10 -44 -24 -83 -29
-87 -6 -4 -11 -31 -12 -59 -1 -41 -6 -55 -24 -69 -13 -9 -20 -22 -16 -28 4 -7
-6 -15 -26 -20 -25 -6 -36 -5 -44 7 -10 13 -13 13 -28 -2 -10 -9 -22 -17 -27
-17 -5 0 -9 -7 -9 -16 0 -9 -8 -23 -17 -30 -16 -12 -16 -15 -3 -24 13 -9 12
-10 -4 -8 -21 3 -56 -52 -56 -89 0 -12 -5 -25 -12 -29 -8 -5 -9 0 -6 14 5 17
2 22 -12 22 -19 0 -30 -19 -30 -50 0 -11 -8 -24 -17 -29 -16 -10 -16 -11 5
-17 23 -7 29 -19 13 -29 -5 -3 -12 -1 -16 5 -11 18 -27 11 -20 -10 5 -15 0
-21 -21 -26 -17 -4 -29 -2 -36 7 -8 11 -9 10 -4 -3 3 -12 0 -18 -10 -18 -9 0
-18 9 -21 20 -5 18 -6 18 -32 2 -14 -9 -29 -20 -32 -25 -3 -4 -18 -5 -32 -1
-21 5 -27 3 -27 -11 0 -9 -6 -15 -12 -12 -7 2 -21 0 -31 -5 -12 -6 -23 -5 -33
3 -12 10 -16 9 -21 -9 -3 -15 -13 -22 -28 -22 -13 0 -31 -3 -40 -6 -15 -6 -15
-4 -4 14 7 12 9 25 5 29 -5 4 -11 2 -13 -4 -6 -18 -23 -16 -23 1 0 8 -4 18
-10 21 -5 3 -7 0 -4 -9 5 -12 -1 -13 -36 -4 -38 10 -41 13 -35 37 7 33 -30 81
-63 81 -12 0 -22 5 -22 10 0 6 -7 10 -15 10 -8 0 -12 6 -9 14 3 8 1 17 -5 20
-6 4 -7 14 -4 23 5 13 1 15 -19 11 -22 -4 -27 -1 -32 25 -4 19 -11 27 -19 24
-10 -4 -13 2 -9 18 6 33 -18 43 -39 16 -21 -26 -43 -19 -34 10 4 11 2 19 -4
19 -6 0 -11 6 -11 13 -1 28 -17 40 -40 27 -25 -14 -33 -9 -24 14 3 9 15 16 26
16 34 0 17 33 -20 37 -29 4 -32 1 -32 -21 0 -33 -17 -33 -32 -1 -6 14 -19 25
-29 25 -12 0 -16 6 -12 20 6 22 -21 29 -31 8 -3 -7 -3 -2 0 10 7 30 -27 67
-45 49 -6 -6 -11 -17 -11 -25 0 -7 -4 -11 -8 -8 -15 9 -7 72 10 90 16 15 15
18 -12 47 -15 17 -32 29 -37 26 -11 -7 -38 14 -39 31 -1 6 -2 18 -2 26 -1 8
-12 16 -24 18 -16 2 -23 10 -23 24 0 11 -5 27 -12 35 -23 29 -20 88 7 117 26
28 40 28 33 1 -5 -18 -2 -19 23 -13 35 9 43 19 36 47 -3 12 -1 18 5 14 14 -9
37 19 28 33 -3 5 -13 10 -21 10 -8 0 -14 5 -14 10 0 6 -9 10 -20 10 -11 0 -20
5 -20 10 0 6 -7 10 -15 10 -16 0 -20 12 -8 23 3 4 12 2 20 -4 10 -9 13 -8 13
5 0 16 -10 20 -45 16 -16 -1 -17 1 -8 11 9 8 9 18 2 31 -6 10 -7 28 -4 39 10
32 -4 79 -25 79 -24 0 -44 26 -36 46 4 10 -1 26 -12 38 -25 28 -45 103 -46
176 -1 33 -2 60 -4 60 -2 0 -12 -5 -22 -10 -13 -7 -21 -7 -25 0 -3 5 -1 10 5
10 6 0 9 30 8 85 -2 47 -2 85 -1 85 12 0 32 -14 28 -20 -3 -5 -1 -12 5 -15 16
-10 40 14 40 38 0 11 7 29 17 39 17 19 43 24 43 8 0 -17 25 -11 37 10 11 16
10 18 -1 14 -11 -4 -13 0 -9 15 5 22 23 29 23 10 0 -5 5 -7 10 -4 6 3 10 19
10 36 0 17 5 29 13 29 8 0 19 11 25 25 8 17 20 25 39 26 24 2 25 2 6 6 -36 7
-27 18 14 19 20 0 39 6 41 12 2 7 13 12 25 12 12 0 28 4 36 9 12 8 30 3 61
-17 2 -2 -2 -7 -10 -12 -11 -7 -8 -10 13 -10 15 0 27 4 27 9 0 5 12 11 26 14
25 4 118 -37 155 -69 8 -8 25 -14 37 -14 14 0 22 -6 22 -17 0 -13 3 -15 8 -5
6 9 16 4 35 -18 15 -16 32 -30 37 -30 6 0 10 -7 10 -15 0 -8 5 -15 12 -15 6 0
9 -2 6 -5 -2 -3 -36 4 -74 14 -79 21 -184 34 -184 21 0 -4 10 -10 22 -13 17
-5 19 -9 10 -20 -14 -17 -71 -20 -89 -5 -9 7 -13 7 -13 -1 0 -6 -13 -11 -30
-11 -20 0 -30 5 -30 15 0 9 9 15 25 15 14 0 25 4 25 9 0 5 10 12 23 14 14 3 8
5 -15 6 -59 2 -131 -18 -162 -44 -16 -14 -35 -25 -43 -25 -7 0 -13 -8 -13 -17
0 -10 -3 -28 -6 -40 -5 -18 -2 -23 14 -23 12 0 24 -5 27 -10 4 -6 10 -8 14 -5
5 2 23 -2 40 -11 18 -9 39 -13 48 -10 9 4 20 1 25 -6 6 -11 8 -10 8 0 0 7 5
10 10 7 6 -4 8 -11 5 -16 -9 -13 19 -11 33 3 7 7 12 9 12 6 0 -4 14 -3 30 2
17 5 30 5 30 1 0 -5 23 -8 51 -7 32 2 53 -2 57 -11 6 -10 18 -10 62 1 30 7 71
20 90 29 l35 15 -26 10 c-15 6 -29 19 -31 30 -5 20 -5 20 34 2 57 -25 61 -32
50 -74 -12 -43 0 -54 28 -26 20 20 46 28 35 10 -3 -5 -3 -10 2 -10 4 0 17 18
27 40 19 40 19 40 -1 60 -12 10 -24 33 -28 50 -5 22 -11 30 -21 26 -10 -4 -12
-2 -8 5 11 18 12 89 2 89 -5 0 -6 5 -3 11 4 5 4 22 1 35 -6 21 -10 23 -21 14
-16 -13 -30 3 -21 25 3 8 1 17 -4 20 -6 4 -10 1 -10 -5 0 -6 -18 4 -40 23 -39
33 -148 77 -191 77 -11 0 -29 9 -41 19 -11 11 -27 17 -35 14 -8 -3 -18 0 -23
6 -4 7 -27 14 -51 16 -24 1 -44 4 -44 5 0 1 -11 4 -25 5 -17 2 -36 -8 -61 -32
-30 -29 -43 -34 -80 -34 -24 1 -57 0 -74 -2 -25 -2 -31 2 -33 21 -4 28 -26 24
-30 -5 -2 -12 -12 -23 -26 -25 l-23 -5 18 36 c19 40 17 53 -9 44 -14 -5 -15
-3 -5 7 10 11 10 17 -1 29 -13 14 -12 22 6 61 12 25 23 65 24 90 2 25 10 50
19 56 8 6 15 16 15 23 0 6 6 11 13 12 7 0 8 2 1 5 -18 8 -5 86 17 102 20 14
49 59 31 48 -6 -3 -14 -1 -18 5 -5 9 0 10 17 5 13 -4 48 -9 77 -13 48 -5 51
-7 37 -23 -21 -24 -19 -33 6 -19 17 8 23 8 29 -2 10 -15 27 -5 105 60 27 22
56 41 63 41 7 0 10 5 7 10 -3 6 -2 10 4 10 5 0 35 25 66 55 43 41 63 54 84 52
25 -2 27 -5 25 -47 -2 -43 -2 -44 9 -15 5 16 16 36 24 43 7 7 13 19 13 27 0
18 67 44 115 44 22 0 60 -8 84 -19z m978 -622 c-3 -8 -6 -5 -6 6 -1 11 2 17 5
13 3 -3 4 -12 1 -19z m-1832 -158 c3 -5 1 -10 -4 -10 -6 0 -11 5 -11 10 0 6 2
10 4 10 3 0 8 -4 11 -10z m1585 -179 c19 -6 47 -13 62 -16 17 -3 32 -17 43
-37 15 -31 15 -33 -7 -50 -28 -22 -41 -22 -98 -2 -44 15 -82 21 -151 23 -20 1
-47 10 -60 20 l-24 19 30 13 c49 19 149 47 160 44 6 -2 26 -8 45 -14z m-1385
-91 c3 -5 -1 -10 -10 -10 -9 0 -13 5 -10 10 3 6 8 10 10 10 2 0 7 -4 10 -10z
m-587 -48 c2 -12 -1 -22 -7 -22 -15 0 -23 18 -10 26 8 4 7 9 -2 16 -11 8 -11
9 1 5 8 -2 16 -13 18 -25z m752 2 c0 -16 -9 -18 -30 -4 -13 9 -13 11 0 19 17
12 30 5 30 -15z m105 16 c3 -5 1 -10 -4 -10 -6 0 -11 5 -11 10 0 6 2 10 4 10
3 0 8 -4 11 -10z m1308 3 c-7 -2 -13 -11 -13 -18 0 -8 -9 -17 -21 -20 -14 -5
-18 -12 -14 -23 15 -36 23 -71 18 -76 -10 -9 -34 23 -35 46 -1 13 -6 28 -10
35 -6 8 -2 16 12 23 12 6 20 17 17 23 -3 8 7 13 27 14 17 0 25 -1 19 -4z
m-1175 -15 c18 -18 15 -25 -13 -32 -33 -8 -44 -1 -38 24 6 22 33 26 51 8z
m-941 -70 c-3 -7 -5 -2 -5 12 0 14 2 19 5 13 2 -7 2 -19 0 -25z m1643 2 c0
-34 -7 -37 -36 -15 -19 15 -19 15 0 30 29 22 36 19 36 -15z m100 10 c0 -5 -4
-10 -10 -10 -5 0 -10 5 -10 10 0 6 5 10 10 10 6 0 10 -4 10 -10z m120 -26 c0
-8 -2 -14 -4 -14 -2 0 -11 -3 -20 -6 -11 -4 -16 0 -16 13 0 11 3 22 6 26 10 9
34 -4 34 -19z m-2076 -61 c-2 -43 -1 -70 2 -60 11 35 21 16 23 -40 0 -32 3
-89 7 -128 4 -47 2 -67 -5 -60 -5 6 -11 21 -13 35 -2 14 -7 30 -11 37 -26 41
-33 293 -8 293 5 0 7 -35 5 -77z m189 -2 c-3 -12 -1 -21 4 -21 10 0 33 -43 33
-61 0 -6 -9 -8 -20 -4 -26 8 -40 -23 -17 -37 10 -5 17 -17 17 -27 0 -10 7 -18
15 -18 8 0 15 4 15 8 0 5 7 6 15 3 11 -4 15 -21 15 -55 0 -35 4 -49 14 -49 15
0 34 -95 22 -107 -3 -4 -6 0 -6 9 0 8 -9 23 -20 33 -20 18 -21 18 -14 -1 4
-10 18 -38 31 -61 23 -40 36 -92 50 -202 5 -47 4 -53 -9 -48 -9 3 -26 -2 -38
-10 -20 -14 -25 -14 -56 1 -19 8 -34 20 -34 24 0 5 -10 13 -23 19 -12 6 -28
27 -36 48 -7 21 -24 49 -36 61 -24 24 -41 62 -31 71 2 3 18 -4 34 -16 37 -26
62 -27 62 -3 0 33 20 43 43 21 19 -18 57 -26 57 -13 0 9 -44 43 -57 44 -6 0
-24 18 -40 40 -16 22 -34 38 -41 35 -9 -3 -12 2 -8 18 3 12 3 16 0 9 -3 -6
-10 -10 -15 -6 -21 13 -7 -38 16 -58 26 -23 32 -43 15 -53 -20 -12 -55 22 -68
66 -14 48 -24 259 -12 259 4 0 8 21 9 46 1 52 20 99 38 99 6 0 15 3 19 7 13
14 63 -48 57 -71z m-163 -2 c0 -11 -4 -17 -10 -14 -5 3 -10 13 -10 21 0 8 5
14 10 14 6 0 10 -9 10 -21z m2648 -82 c7 -5 11 -19 10 -31 -3 -26 10 -95 21
-117 5 -8 3 -47 -5 -90 -8 -40 -16 -86 -18 -101 -12 -71 -76 -144 -76 -87 0
12 7 27 16 33 24 18 35 83 17 101 -14 15 -27 19 -50 16 -9 -1 -13 11 -13 36 0
25 3 33 9 25 13 -22 23 23 26 113 3 121 14 140 63 102z m130 -85 c-3 -14 -6
-14 -16 6 -7 12 -10 27 -6 33 9 15 27 -16 22 -39z m-43 18 c3 -5 1 -10 -4 -10
-6 0 -11 5 -11 10 0 6 2 10 4 10 3 0 8 -4 11 -10z m45 -81 c0 -11 -4 -18 -10
-14 -5 3 -7 12 -3 20 7 21 13 19 13 -6z m-46 -46 c-5 -16 -4 -16 10 1 19 23
39 12 30 -17 -14 -51 -38 -96 -47 -90 -6 4 -8 -1 -4 -11 4 -9 3 -14 -2 -11
-14 8 -1 145 13 145 3 0 3 -8 0 -17z m-2237 -85 c-3 -8 -6 -5 -6 6 -1 11 2 17
5 13 3 -3 4 -12 1 -19z m33 13 c0 -6 -4 -13 -10 -16 -5 -3 -10 1 -10 9 0 9 5
16 10 16 6 0 10 -4 10 -9z m2038 -53 c-8 -13 -18 -36 -22 -52 -7 -28 -31 -55
-48 -56 -19 0 -6 60 20 93 31 42 76 54 50 15z m-3 -128 c4 -6 2 -16 -3 -23 -6
-7 -6 -21 -1 -35 l9 -24 31 27 c17 14 34 23 37 20 3 -2 -5 -26 -18 -52 -12
-27 -28 -59 -34 -72 -11 -24 -30 -35 -79 -46 -20 -4 -27 -10 -23 -20 3 -8 1
-17 -4 -20 -6 -4 -10 2 -11 12 0 16 -1 16 -10 -2 -10 -22 -5 109 7 178 6 32
12 39 36 44 15 3 31 10 34 14 7 12 21 11 29 -1z m-260 -230 c-10 -11 -15 -26
-12 -33 3 -8 -1 -25 -10 -36 -8 -12 -13 -31 -10 -42 3 -10 1 -22 -4 -25 -6 -3
-7 -14 -4 -24 8 -24 -30 -123 -56 -146 -17 -16 -22 -16 -29 -4 -6 10 -7 2 -3
-22 4 -31 2 -38 -10 -38 -24 0 -27 86 -4 128 9 18 17 44 17 57 0 14 5 25 10
25 6 0 10 6 10 13 0 29 32 77 51 77 10 0 19 7 19 15 0 18 -12 19 -28 3 -9 -9
-12 -9 -12 0 0 7 4 12 9 12 5 0 12 13 16 29 5 22 11 28 22 24 12 -5 15 -2 10
10 -6 15 -4 16 14 6 20 -10 20 -12 4 -29z m-1715 -170 c0 -5 -5 -10 -11 -10
-5 0 -7 5 -4 10 3 6 8 10 11 10 2 0 4 -4 4 -10z m80 -30 c-20 -13 -33 -13 -25
0 3 6 14 10 23 10 15 0 15 -2 2 -10z m1460 -136 c0 -14 -4 -23 -10 -19 -5 3
-10 14 -10 23 0 15 -2 15 -10 2 -5 -8 -10 -10 -10 -4 0 14 10 24 27 24 7 0 13
-11 13 -26z m-1300 -114 c0 -5 -2 -10 -4 -10 -3 0 -8 5 -11 10 -3 6 -1 10 4
10 6 0 11 -4 11 -10z m180 -120 c0 -5 -4 -10 -10 -10 -5 0 -10 5 -10 10 0 6 5
10 10 10 6 0 10 -4 10 -10z m195 -160 c3 -5 -1 -10 -9 -10 -9 0 -16 5 -16 10
0 6 4 10 9 10 6 0 13 -4 16 -10z m404 -70 c-22 -14 -34 2 -13 17 13 10 20 10
23 2 2 -6 -3 -15 -10 -19z m427 -236 c-4 -12 -10 -14 -17 -7 -5 5 -7 17 -3 27
4 12 10 14 17 7 5 -5 7 -17 3 -27z m-396 -208 c0 -3 -4 -8 -10 -11 -5 -3 -10
-1 -10 4 0 6 5 11 10 11 6 0 10 -2 10 -4z m432 -28 c-7 -7 -12 -8 -12 -2 0 14
12 26 19 19 2 -3 -1 -11 -7 -17z m-1999 -730 c6 -18 -3 -38 -17 -38 -6 0 -12
11 -12 25 -2 26 21 36 29 13z m3437 -8 c0 -5 -4 -10 -10 -10 -5 0 -10 5 -10
10 0 6 5 10 10 10 6 0 10 -4 10 -10z m44 -33 c7 -6 6 -7 -4 -4 -8 2 -16 12
-17 23 -2 13 -1 15 4 4 3 -8 11 -19 17 -23z m-824 9 c0 -3 -4 -8 -10 -11 -5
-3 -10 -1 -10 4 0 6 5 11 10 11 6 0 10 -2 10 -4z m845 -46 c3 -5 1 -10 -4 -10
-6 0 -11 5 -11 10 0 6 2 10 4 10 3 0 8 -4 11 -10z m-15 -40 c0 -5 -4 -10 -10
-10 -5 0 -10 5 -10 10 0 6 5 10 10 10 6 0 10 -4 10 -10z m-536 -25 c11 -8 16
-18 13 -22 -9 -9 -58 18 -51 29 7 11 16 10 38 -7z m-3004 -35 c0 -5 -4 -10
-10 -10 -5 0 -10 5 -10 10 0 6 5 10 10 10 6 0 10 -4 10 -10z m3065 -10 c3 -5
1 -10 -4 -10 -6 0 -11 5 -11 10 0 6 2 10 4 10 3 0 8 -4 11 -10z m65 -25 c0 -9
-6 -12 -16 -8 -13 5 -13 7 -2 14 17 11 18 11 18 -6z m-3090 -9 c0 -3 -4 -8
-10 -11 -5 -3 -10 -1 -10 4 0 6 5 11 10 11 6 0 10 -2 10 -4z m-10 -52 c0 -8
-4 -12 -10 -9 -5 3 -10 10 -10 16 0 5 5 9 10 9 6 0 10 -7 10 -16z m-10 -39 c0
-17 -27 -32 -37 -21 -4 3 2 13 13 21 24 18 24 18 24 0z m-4 -88 c10 4 12 0 8
-11 -3 -9 -10 -16 -15 -16 -6 0 -5 -10 2 -21 9 -17 8 -23 -2 -30 -19 -12 -29
-11 -29 1 0 6 5 10 10 10 19 0 10 21 -12 29 -18 6 -19 9 -5 14 10 4 18 17 18
29 1 16 3 18 6 6 2 -10 10 -15 19 -11z m2378 -11 c-8 -7 -20 -28 -25 -46 -8
-32 -8 -32 -3 9 6 54 10 62 30 54 13 -5 12 -7 -2 -17z m-25 -161 c2 -13 -1
-16 -13 -12 -9 4 -16 2 -16 -2 0 -5 6 -12 13 -14 9 -4 9 -6 0 -6 -17 -1 -25
16 -18 40 8 24 28 20 34 -6z m-1759 -90 c0 -17 -2 -17 -10 -5 -5 8 -10 24 -10
35 0 17 2 17 10 5 5 -8 10 -24 10 -35z m1750 -119 c0 -11 -19 -15 -25 -6 -3 5
1 10 9 10 9 0 16 -2 16 -4z"/>
<path d="M2150 4670 c0 -5 5 -10 11 -10 5 0 7 5 4 10 -3 6 -8 10 -11 10 -2 0
-4 -4 -4 -10z"/>
<path d="M2398 3933 c7 -3 16 -2 19 1 4 3 -2 6 -13 5 -11 0 -14 -3 -6 -6z"/>
<path d="M3130 3670 c-8 -15 -7 -27 4 -47 8 -16 16 -26 16 -23 6 29 5 82 -1
86 -4 2 -13 -5 -19 -16z"/>
<path d="M3202 3462 c1 -15 -6 -42 -15 -59 -13 -24 -14 -32 -4 -36 7 -2 -3
-18 -25 -40 -21 -20 -38 -45 -38 -56 0 -24 -45 -61 -74 -60 -20 0 -20 1 -1 8
16 7 13 9 -18 15 -20 4 -42 4 -47 1 -6 -3 -14 4 -19 17 -5 13 -24 38 -41 57
-28 30 -35 33 -51 23 -16 -11 -19 -9 -19 9 0 11 -5 17 -10 14 -12 -7 -40 18
-40 36 0 7 -3 10 -6 6 -11 -11 17 -77 39 -92 12 -8 16 -15 10 -15 -7 0 -15 5
-18 10 -4 6 -23 7 -48 3 -38 -6 -41 -5 -28 10 8 11 9 17 2 17 -6 0 -14 18 -17
41 -6 33 -10 40 -28 37 -19 -3 -21 -9 -19 -62 2 -59 21 -102 50 -113 22 -9 79
-63 66 -63 -7 0 -15 5 -18 10 -9 15 -25 12 -25 -5 0 -8 -6 -15 -12 -15 -7 0
-21 -7 -31 -14 -15 -12 -16 -18 -7 -35 13 -25 58 -29 66 -6 4 8 12 15 20 15
17 0 18 -12 2 -28 -9 -9 -8 -12 4 -12 9 0 18 7 22 15 9 24 24 17 29 -12 4 -26
5 -27 12 -6 4 14 14 21 28 20 23 -2 56 -33 57 -54 0 -24 20 -13 20 11 0 32 12
39 36 22 10 -8 24 -11 32 -8 8 3 18 -1 23 -9 7 -12 9 -12 9 0 0 11 3 11 14 1
8 -6 12 -18 9 -26 -3 -8 -1 -14 5 -14 5 0 12 7 16 15 7 20 33 19 44 -1 6 -11
12 -13 16 -6 4 7 24 5 61 -8 30 -10 55 -16 55 -12 0 4 5 -1 10 -10 6 -9 26
-22 45 -28 19 -6 35 -15 35 -18 0 -10 -51 -32 -61 -26 -13 8 -89 15 -219 20
-69 2 -159 9 -200 15 -90 12 -240 14 -294 4 -34 -7 -38 -6 -33 9 4 9 1 16 -5
16 -7 0 -6 5 2 15 10 12 15 13 21 4 13 -22 40 -2 33 25 -4 19 -1 26 15 31 12
3 21 13 21 22 0 9 -6 13 -15 9 -10 -4 -15 1 -15 14 0 18 -3 19 -21 8 -17 -11
-22 -10 -35 6 -7 11 -17 17 -20 13 -4 -4 -1 -14 7 -23 14 -17 12 -17 -46 2 -5
2 -18 -7 -27 -20 -16 -22 -16 -24 3 -44 20 -22 26 -52 10 -52 -5 0 -11 6 -14
13 -9 24 -20 -3 -19 -48 1 -44 22 -91 35 -79 4 4 9 -1 13 -10 3 -9 11 -16 18
-16 6 0 33 -20 60 -45 48 -45 66 -54 66 -35 0 6 5 10 10 10 6 0 10 -7 10 -15
0 -9 9 -15 25 -15 18 0 23 -4 19 -15 -4 -8 -2 -15 4 -15 6 0 12 5 14 11 3 8
10 6 21 -5 22 -23 76 -24 92 -3 7 10 19 17 28 17 9 0 20 7 25 16 6 11 11 13
16 5 4 -6 19 -11 34 -11 15 0 22 3 15 8 -6 4 23 7 65 7 65 0 75 -2 78 -18 2
-13 -2 -17 -12 -13 -21 8 -43 -4 -37 -20 3 -8 0 -14 -6 -14 -6 0 -11 -4 -11
-10 0 -5 11 -10 25 -10 22 0 38 -19 18 -21 -5 0 -17 -3 -28 -5 -30 -8 -36 -8
-85 0 -73 11 -184 25 -195 25 -5 0 1 -9 14 -19 13 -11 18 -20 12 -20 -14 0
-14 -22 0 -54 10 -20 17 -24 39 -20 17 4 32 0 43 -10 20 -20 27 -20 27 -1 0 8
4 15 9 15 5 0 13 9 16 20 3 11 11 20 16 20 6 0 8 -4 5 -9 -8 -12 14 -71 25
-71 5 0 13 8 16 18 7 19 22 32 38 32 6 0 3 -5 -5 -10 -15 -10 -8 -12 28 -10 4
1 6 9 4 19 -2 16 3 19 35 18 39 -2 73 17 73 41 0 8 9 12 23 10 23 -4 61 28 51
43 -3 5 8 9 24 9 17 0 33 6 36 13 24 48 47 73 75 83 45 15 71 35 71 56 0 10 5
18 10 18 6 0 10 10 10 22 0 17 3 19 12 10 18 -18 28 -14 28 11 0 29 36 53 56
36 18 -15 19 2 1 54 -16 44 -37 70 -37 45 0 -9 -14 -21 -32 -27 -30 -11 -31
-12 -13 -31 25 -28 3 -25 -28 4 -14 13 -37 26 -51 30 -14 3 -26 11 -26 16 0 6
-4 10 -10 10 -5 0 -10 -12 -10 -26 0 -15 -4 -23 -11 -18 -6 3 -8 16 -5 29 8
30 -10 43 -56 43 -47 0 -58 7 -58 38 0 30 16 63 41 85 10 8 22 34 28 57 8 37
6 44 -11 57 -14 9 -19 21 -15 34 3 14 0 21 -10 21 -10 0 -13 6 -9 15 3 9 -1
18 -9 21 -8 4 -15 16 -15 28 0 22 -17 46 -31 46 -4 0 -7 -12 -7 -28z m-242
-342 c0 -5 -4 -10 -10 -10 -5 0 -10 5 -10 10 0 6 5 10 10 10 6 0 10 -4 10 -10z
m150 -40 c0 -5 -5 -10 -11 -10 -5 0 -7 5 -4 10 3 6 8 10 11 10 2 0 4 -4 4 -10z
m-336 -181 c48 2 66 -12 66 -55 l0 -34 -65 4 c-78 6 -82 8 -90 47 -8 34 8 54
35 42 8 -3 32 -5 54 -4z m-112 -34 c4 -5 8 -17 8 -27 0 -25 -40 -10 -51 19
-17 45 13 50 43 8z m-62 -1 c0 -17 -22 -14 -28 4 -2 7 3 12 12 12 9 0 16 -7
16 -16z m344 6 c14 -5 26 -17 27 -27 0 -16 1 -15 8 2 7 17 19 20 72 23 35 1
90 4 122 6 43 3 59 0 66 -11 6 -12 13 -13 27 -5 16 8 24 6 42 -13 l23 -24 -37
-17 c-35 -17 -37 -17 -49 0 -10 13 -14 14 -18 3 -6 -16 -113 -22 -123 -6 -4 7
-10 6 -19 -1 -19 -16 -205 -4 -223 13 -8 9 -11 24 -6 40 5 21 12 27 34 27 16
0 40 -4 54 -10z m-44 -100 c0 -5 -4 -10 -9 -10 -6 0 -13 5 -16 10 -3 6 1 10 9
10 9 0 16 -4 16 -10z m-50 -170 c0 -5 -5 -10 -11 -10 -5 0 -7 5 -4 10 3 6 8
10 11 10 2 0 4 -4 4 -10z"/>
<path d="M2321 3111 c-12 -12 -21 -27 -21 -33 0 -7 12 0 26 15 30 33 26 49 -5
18z"/>
<path d="M2120 3007 c0 -14 6 -30 14 -36 11 -9 15 -6 18 14 4 18 0 29 -13 36
-16 8 -19 6 -19 -14z"/>
<path d="M2425 2939 c-9 -14 -2 -20 14 -10 8 6 9 11 3 15 -6 3 -14 1 -17 -5z"/>
<path d="M2182 2900 c1 -13 9 -25 16 -28 17 -5 15 23 -4 39 -14 11 -15 10 -12
-11z"/>
<path d="M2220 2786 c0 -9 5 -16 10 -16 6 0 10 4 10 9 0 6 -4 13 -10 16 -5 3
-10 -1 -10 -9z"/>
<path d="M2957 2733 c-12 -11 -8 -23 8 -23 8 0 15 7 15 15 0 16 -12 20 -23 8z"/>
<path d="M3095 2580 c3 -5 11 -10 16 -10 6 0 7 5 4 10 -3 6 -11 10 -16 10 -6
0 -7 -4 -4 -10z"/>
<path d="M2772 2223 c4 -13 2 -26 -3 -29 -11 -6 -12 -24 -1 -24 4 0 12 11 18
25 10 20 9 27 -4 37 -13 11 -15 10 -10 -9z"/>
<path d="M3100 2214 c0 -8 5 -12 10 -9 6 3 10 10 10 16 0 5 -4 9 -10 9 -5 0
-10 -7 -10 -16z"/>
<path d="M3771 3764 c0 -11 3 -14 6 -6 3 7 2 16 -1 19 -3 4 -6 -2 -5 -13z"/>
<path d="M1791 3264 c0 -11 3 -14 6 -6 3 7 2 16 -1 19 -3 4 -6 -2 -5 -13z"/>
<path d="M2240 1920 c0 -5 5 -10 10 -10 6 0 10 5 10 10 0 6 -4 10 -10 10 -5 0
-10 -4 -10 -10z"/>
<path d="M3514 1758 c-5 -8 -2 -9 9 -5 10 3 17 2 17 -4 0 -6 5 -7 10 -4 6 4 8
11 5 16 -8 13 -32 11 -41 -3z"/>
<path d="M2151 1744 c0 -11 3 -14 6 -6 3 7 2 16 -1 19 -3 4 -6 -2 -5 -13z"/>
<path d="M2120 1705 c0 -8 4 -15 10 -15 5 0 7 7 4 15 -4 8 -8 15 -10 15 -2 0
-4 -7 -4 -15z"/>
<path d="M2752 1664 c4 -21 22 -23 26 -1 2 10 -3 17 -13 17 -10 0 -15 -6 -13
-16z"/>
<path d="M2658 1543 c7 -3 16 -2 19 1 4 3 -2 6 -13 5 -11 0 -14 -3 -6 -6z"/>
<path d="M3860 1189 c0 -5 5 -7 10 -4 6 3 10 8 10 11 0 2 -4 4 -10 4 -5 0 -10
-5 -10 -11z"/>
<path d="M2780 1078 c-43 -45 -52 -65 -21 -48 11 5 30 10 43 10 20 1 21 2 6
11 -25 14 -22 27 7 41 14 6 25 15 25 20 0 18 -21 6 -60 -34z"/>
<path d="M2988 1061 c18 -12 35 -28 38 -36 6 -15 34 -21 34 -7 0 9 -58 49 -85
58 -11 3 -5 -3 13 -15z"/>
<path d="M2935 975 c-120 -43 -181 -75 -237 -124 -26 -23 -52 -39 -60 -36 -9
4 -19 -4 -26 -20 -15 -32 -15 -35 1 -35 12 0 50 -61 129 -204 l39 -70 -55
-165 c-59 -182 -82 -279 -69 -291 19 -19 492 -39 549 -24 16 4 20 11 16 27
-15 60 -124 199 -276 354 -60 62 -106 116 -102 120 4 5 30 7 58 6 32 -2 62 4
82 15 55 30 90 40 114 31 12 -5 22 -5 23 -1 3 29 12 75 24 122 7 30 16 72 19
92 9 53 23 55 42 8 9 -22 19 -39 21 -36 2 2 -6 28 -18 58 -40 94 -136 226
-146 201 -3 -9 -10 -10 -21 -4 -12 6 -46 -2 -107 -24z"/>
<path d="M4182 865 c0 -16 2 -22 5 -12 2 9 2 23 0 30 -3 6 -5 -1 -5 -18z"/>
<path d="M4257 815 c3 -8 9 -12 14 -9 12 7 11 11 -5 17 -10 4 -13 1 -9 -8z"/>
<path d="M4386 753 c-12 -12 -6 -33 9 -33 8 0 15 6 15 14 0 17 -14 28 -24 19z"/>
<path d="M4427 739 c7 -7 15 -10 18 -7 3 3 -2 9 -12 12 -14 6 -15 5 -6 -5z"/>
<path d="M2583 725 c-3 -9 -3 -18 -1 -21 3 -3 8 4 11 16 6 23 -1 27 -10 5z"/>
<path d="M4215 720 c-3 -5 -1 -10 4 -10 6 0 11 5 11 10 0 6 -2 10 -4 10 -3 0
-8 -4 -11 -10z"/>
<path d="M4251 714 c0 -11 3 -14 6 -6 3 7 2 16 -1 19 -3 4 -6 -2 -5 -13z"/>
<path d="M4422 700 c0 -14 2 -19 5 -12 2 6 2 18 0 25 -3 6 -5 1 -5 -13z"/>
<path d="M4116 701 c-4 -7 -5 -15 -2 -18 9 -9 19 4 14 18 -4 11 -6 11 -12 0z"/>
<path d="M4290 690 c0 -5 5 -10 10 -10 6 0 10 5 10 10 0 6 -4 10 -10 10 -5 0
-10 -4 -10 -10z"/>
<path d="M2560 669 c-7 -11 -10 -23 -7 -25 2 -2 9 7 15 21 14 30 7 33 -8 4z"/>
<path d="M4435 660 c3 -5 8 -10 11 -10 2 0 4 5 4 10 0 6 -5 10 -11 10 -5 0 -7
-4 -4 -10z"/>
<path d="M4801 656 c-9 -11 -9 -16 0 -22 8 -4 15 -2 17 5 4 11 6 11 13 0 6
-11 11 -11 20 -2 14 14 12 18 -17 27 -13 4 -26 1 -33 -8z"/>
<path d="M4440 610 c0 -5 4 -10 9 -10 6 0 13 5 16 10 3 6 -1 10 -9 10 -9 0
-16 -4 -16 -10z"/>
<path d="M4610 600 c0 -5 5 -10 10 -10 6 0 10 5 10 10 0 6 -4 10 -10 10 -5 0
-10 -4 -10 -10z"/>
<path d="M4518 583 c7 -3 16 -2 19 1 4 3 -2 6 -13 5 -11 0 -14 -3 -6 -6z"/>
<path d="M4285 570 c4 -6 11 -8 16 -5 14 9 11 15 -7 15 -8 0 -12 -5 -9 -10z"/>
<path d="M4420 560 c0 -5 5 -10 11 -10 5 0 7 5 4 10 -3 6 -8 10 -11 10 -2 0
-4 -4 -4 -10z"/>
<path d="M4795 560 c-3 -5 -1 -10 4 -10 6 0 11 5 11 10 0 6 -2 10 -4 10 -3 0
-8 -4 -11 -10z"/>
<path d="M3095 527 c-4 -8 -18 -18 -31 -21 l-25 -7 31 -44 c16 -24 30 -48 30
-54 0 -5 3 -12 8 -14 4 -3 7 28 7 68 0 72 -9 103 -20 72z"/>
<path d="M4211 524 c0 -11 3 -14 6 -6 3 7 2 16 -1 19 -3 4 -6 -2 -5 -13z"/>
<path d="M4266 531 c-3 -5 1 -11 9 -15 8 -3 15 -1 15 4 0 13 -18 22 -24 11z"/>
<path d="M4403 531 c-18 -12 -23 -41 -7 -41 20 0 54 18 54 29 0 11 -35 20 -47
12z"/>
<path d="M4630 510 c0 -5 5 -10 11 -10 5 0 7 5 4 10 -3 6 -8 10 -11 10 -2 0
-4 -4 -4 -10z"/>
<path d="M4496 503 c-3 -4 6 -15 21 -25 31 -20 43 -22 43 -8 0 12 -55 41 -64
33z"/>
<path d="M4408 473 c-22 -5 -24 -23 -3 -23 8 0 15 5 15 10 0 6 11 8 25 4 15
-4 25 -2 25 5 0 11 -29 13 -62 4z"/>
<path d="M4501 454 c0 -11 3 -14 6 -6 3 7 2 16 -1 19 -3 4 -6 -2 -5 -13z"/>
<path d="M4625 451 c-3 -6 -11 -9 -16 -6 -5 4 -9 1 -9 -4 0 -13 10 -14 30 -1
8 5 12 12 8 15 -3 4 -9 1 -13 -4z"/>
<path d="M4257 410 c-9 -44 -9 -58 1 -43 8 13 62 6 62 -8 0 -5 5 -9 10 -9 6 0
10 7 10 15 0 8 -4 15 -10 15 -5 0 -10 7 -10 15 0 8 -7 15 -16 15 -9 0 -22 7
-29 16 -10 15 -13 13 -18 -16z"/>
<path d="M4305 430 c-3 -5 -1 -10 4 -10 6 0 11 5 11 10 0 6 -2 10 -4 10 -3 0
-8 -4 -11 -10z"/>
<path d="M4470 429 c0 -5 5 -7 10 -4 6 3 10 8 10 11 0 2 -4 4 -10 4 -5 0 -10
-5 -10 -11z"/>
<path d="M4516 418 c-8 -33 -8 -38 7 -38 23 1 48 27 41 44 -9 24 -41 20 -48
-6z"/>
<path d="M4197 404 c-9 -9 4 -35 14 -28 5 3 9 12 9 20 0 14 -12 19 -23 8z"/>
<path d="M4260 339 c0 -5 5 -7 10 -4 6 3 10 8 10 11 0 2 -4 4 -10 4 -5 0 -10
-5 -10 -11z"/>
<path d="M4331 315 c-22 -37 -18 -44 14 -21 20 14 26 16 45 16 21 0 9 20 -12
21 -22 0 -22 1 -3 9 19 8 19 9 -2 9 -14 1 -28 -11 -42 -34z"/>
<path d="M4287 314 c-4 -4 -7 -14 -7 -23 0 -11 3 -12 11 -4 6 6 10 16 7 23 -2
6 -7 8 -11 4z"/>
</g>
</svg>
